<svg width="22" height="22" fill="none" xmlns="http://www.w3.org/2000/svg"><path d="M17.417 12.454V9.167c0-2.95-2.003-5.433-4.717-6.18A1.824 1.824 0 0 0 11 1.833c-.775 0-1.432.477-1.7 1.154-2.714.748-4.717 3.23-4.717 6.18v3.287L3.02 14.019a.914.914 0 0 0-.269.648V16.5a.917.917 0 0 0 .917.917h14.666a.917.917 0 0 0 .917-.917v-1.833a.913.913 0 0 0-.269-.648l-1.564-1.565Zm0 3.13H4.583v-.538l1.565-1.564a.913.913 0 0 0 .269-.649V9.167A4.589 4.589 0 0 1 11 4.583a4.589 4.589 0 0 1 4.583 4.584v3.666c0 .244.097.477.269.649l1.565 1.564v.537ZM11 20.166a2.731 2.731 0 0 0 2.583-1.834H8.417A2.732 2.732 0 0 0 11 20.167Z" fill="#3670C7"/></svg>